<svg width="250" height="250" viewBox="0 0 250 250" fill="none" xmlns="http://www.w3.org/2000/svg">
<rect width="250" height="250" rx="62.5" fill="url(#paint0_linear_771_15710)"/>
<path d="M208.488 114.692C208.52 114.8 208.546 114.909 208.565 115.023C208.291 114.418 208.01 113.818 207.71 113.225C207.71 113.212 207.691 113.2 207.691 113.187C200.039 98.1879 184.447 87.9144 166.457 87.9144C158.664 87.9144 151.318 89.8466 144.877 93.2456V67.9541H120.198V105.4L120.166 105.368C117.87 102.645 115.549 100.305 113.17 98.2899C107.086 93.3349 99.7208 89.9104 91.6474 88.5585C89.3262 88.2077 86.9029 88.0037 84.3775 87.9271C84.2628 87.9271 84.1543 87.9271 84.0396 87.9271C58.4419 87.9463 37.71 108.646 37.71 134.18C37.71 134.276 37.71 134.378 37.71 134.48C37.71 134.926 37.7292 135.373 37.7483 135.819C38.0671 143.057 40.4458 150.729 43.5451 156.666V156.679C51.6758 171.786 66.713 180.446 83.9694 180.446C101.226 180.446 117.079 170.472 124.847 155.843C133.054 167.966 144.188 179.955 165.124 180.433H165.245C165.437 180.433 165.634 180.446 165.826 180.433C166.017 180.433 166.215 180.433 166.412 180.433C166.444 180.433 166.476 180.433 166.514 180.433C166.597 180.433 166.68 180.433 166.757 180.433C167.146 180.433 167.522 180.42 167.905 180.414C171.329 180.312 174.664 179.827 177.866 179.011C178.223 178.922 178.58 178.826 178.931 178.73C179.243 178.641 179.568 178.552 179.881 178.45C179.983 178.418 180.085 178.386 180.187 178.354C180.467 178.271 180.742 178.182 181.016 178.086C181.284 178.003 181.545 177.914 181.807 177.812C182.164 177.691 182.521 177.557 182.872 177.423C183.031 177.366 183.184 177.302 183.337 177.245C183.535 177.168 183.726 177.092 183.93 177.009C184.096 176.945 184.262 176.868 184.434 176.798C184.447 176.798 184.46 176.798 184.472 176.785C184.81 176.639 185.148 176.498 185.486 176.345C195.077 172.028 202.934 164.535 207.723 155.218C210.567 149.676 212.321 143.491 212.71 136.935V131.387C212.321 124.863 211.199 119.972 208.482 114.673L208.488 114.692ZM187.316 139.741C184.338 150.971 175.238 159.421 163.001 158.592C152.121 157.858 142.919 154.351 134.591 147.24C129.923 143.255 125.72 138.727 121.658 134.135C113.648 125.074 105.964 120.89 99.2935 118.964C103.177 122.867 105.575 128.243 105.575 134.18C105.575 146.105 95.9073 155.767 83.9885 155.767C72.0698 155.767 62.4021 146.099 62.4021 134.18C62.4021 133.287 62.4531 132.414 62.5679 131.546C63.6584 118.626 73.3898 110.642 83.8801 110.126C84.0332 110.126 84.1798 110.126 84.3265 110.126C87.0177 110.049 89.696 110.202 92.3425 110.572C101.5 111.401 114.025 114.902 126.925 129.493C137.033 140.921 143.825 146.59 151.056 149.3C147.23 145.41 144.877 140.073 144.877 134.18C144.877 122.255 154.545 112.594 166.463 112.594C178.382 112.594 188.05 122.261 188.05 134.18C188.05 136.106 187.795 137.968 187.323 139.741H187.316Z" fill="url(#paint1_linear_771_15710)"/>
<defs>
<linearGradient id="paint0_linear_771_15710" x1="250" y1="124.105" x2="7.01066e-06" y2="125.896" gradientUnits="userSpaceOnUse">
<stop offset="0.195212" stop-color="#FF641E"/>
<stop offset="1" stop-color="#FFD201"/>
</linearGradient>
<linearGradient id="paint1_linear_771_15710" x1="37.71" y1="67.9541" x2="141.809" y2="226.885" gradientUnits="userSpaceOnUse">
<stop stop-color="#FFFDF9"/>
<stop offset="1" stop-color="#F9F4E8"/>
</linearGradient>
</defs>
</svg>
